<svg xmlns="http://www.w3.org/2000/svg" width="46.843" height="58.554" viewBox="0 0 46.843 58.554"><defs><style>.a{fill:#fff;}</style></defs><g transform="translate(0 0)"><path class="a" d="M75.1,150.693H92.663a6.839,6.839,0,0,0,6.831-6.831V126.3a6.839,6.839,0,0,0-6.831-6.831H75.1a6.84,6.84,0,0,0-6.831,6.831v17.566A6.84,6.84,0,0,0,75.1,150.693Zm-4.88-24.4a4.886,4.886,0,0,1,4.88-4.879H92.663a4.885,4.885,0,0,1,4.879,4.879v17.566a4.885,4.885,0,0,1-4.879,4.879H75.1a4.886,4.886,0,0,1-4.88-4.879Zm0,0" transform="translate(-60.459 -105.802)"/><path class="a" d="M3.9,34.157v3.9a10.746,10.746,0,0,0,8.809,10.552A31.2,31.2,0,0,0,14.2,56.546a2.928,2.928,0,0,0,2.781,2.008H29.863a2.928,2.928,0,0,0,2.783-2.006,31.213,31.213,0,0,0,1.487-7.935A10.745,10.745,0,0,0,42.939,38.06h.976a2.928,2.928,0,0,0,2.928-2.928V33.18a2.928,2.928,0,0,0-2.928-2.927h-.976V28.3h.976a2.928,2.928,0,0,0,2.928-2.927V23.422a2.928,2.928,0,0,0-2.928-2.928h-.976A10.746,10.746,0,0,0,34.131,9.941a31.2,31.2,0,0,0-1.487-7.934A2.928,2.928,0,0,0,29.863,0H16.981A2.928,2.928,0,0,0,14.2,2.006a31.213,31.213,0,0,0-1.487,7.935A10.746,10.746,0,0,0,3.9,20.494v3.9H2.928A2.928,2.928,0,0,0,0,27.325v3.9a2.928,2.928,0,0,0,2.928,2.928ZM30.791,55.932a.975.975,0,0,1-.929.671H16.981a.975.975,0,0,1-.931-.671A29.532,29.532,0,0,1,14.68,48.8H32.163a29.539,29.539,0,0,1-1.371,7.137ZM43.915,32.2a.976.976,0,0,1,.976.976v1.952a.976.976,0,0,1-.976.976h-.976V32.2Zm0-9.759a.976.976,0,0,1,.976.976v1.952a.976.976,0,0,1-.976.976h-.976v-3.9ZM16.051,2.622a.976.976,0,0,1,.929-.671H29.863a.976.976,0,0,1,.931.671,29.554,29.554,0,0,1,1.369,7.136H14.68a29.559,29.559,0,0,1,1.371-7.137ZM5.855,20.494a8.793,8.793,0,0,1,8.783-8.783H32.2a8.793,8.793,0,0,1,8.783,8.783V38.06A8.793,8.793,0,0,1,32.2,46.843H14.638A8.793,8.793,0,0,1,5.855,38.06Zm-3.9,10.735v-3.9a.976.976,0,0,1,.976-.976H3.9V32.2H2.928A.976.976,0,0,1,1.952,31.229Zm0,0"/><path class="a" d="M104.74,214.141a.976.976,0,0,0,.851-1.458,9.635,9.635,0,0,1-1.241-4.754,9.524,9.524,0,0,1,1.241-4.75.976.976,0,1,0-1.7-.962,11.452,11.452,0,0,0-1.493,5.712,11.72,11.72,0,0,0,1.446,5.628A.976.976,0,0,0,104.74,214.141Zm0,0" transform="translate(-90.687 -178.652)"/><path class="a" d="M279.589,208.237A9.882,9.882,0,0,1,278.355,213a.976.976,0,1,0,1.708.944,11.821,11.821,0,0,0,1.478-5.713,11.543,11.543,0,0,0-1.436-5.627.977.977,0,0,0-1.748.872A9.618,9.618,0,0,1,279.589,208.237Zm0,0" transform="translate(-246.409 -178.96)"/><path class="a" d="M151.092,331.258a11.553,11.553,0,0,0,5.708,1.481,11.821,11.821,0,0,0,5.713-1.478.976.976,0,1,0-.945-1.708,9.869,9.869,0,0,1-4.768,1.234,9.619,9.619,0,0,1-4.755-1.233.976.976,0,0,0-.954,1.7Zm0,0" transform="translate(-133.379 -291.752)"/><path class="a" d="M151.491,156.911a.975.975,0,0,0,.479-.126,9.76,9.76,0,0,1,9.505,0,.966.966,0,0,0,.476.125h.01a.976.976,0,0,0,.434-1.845,11.674,11.674,0,0,0-11.387.02.976.976,0,0,0,.482,1.826Zm0,0" transform="translate(-133.3 -136.027)"/><path class="a" d="M161.324,204.817a3.534,3.534,0,0,0-1.9.968,3.534,3.534,0,0,0-1.9-.968,3.35,3.35,0,0,0-2.895.9c-1.349,1.327-1.421,3.757-.2,6.167.91,1.917,3.182,3.6,4.455,4.44a.976.976,0,0,0,1.073,0c1.269-.835,3.545-2.523,4.444-4.416,1.235-2.434,1.162-4.863-.186-6.191a3.355,3.355,0,0,0-2.9-.9Zm1.329,6.23a10.065,10.065,0,0,1-3.228,3.281,10.058,10.058,0,0,1-3.239-3.3c-.817-1.608-.893-3.221-.186-3.916a1.4,1.4,0,0,1,.976-.383,1.328,1.328,0,0,1,.234.02,1.888,1.888,0,0,1,1.344,1.121,1.017,1.017,0,0,0,1.741,0,1.888,1.888,0,0,1,1.344-1.121,1.412,1.412,0,0,1,1.211.364c.708.7.632,2.307-.2,3.939Zm0,0" transform="translate(-136.004 -181.351)"/></g></svg>