<svg xmlns="http://www.w3.org/2000/svg" width="44.329" height="64.872" viewBox="0 0 44.329 64.872"><defs><style>.a{fill:#ff8a47;}</style></defs><g transform="translate(0 0)"><path class="a" d="M3.244,31.355H5.406V35.68H4.325a3.243,3.243,0,0,0-3.243,3.243v2.162a3.244,3.244,0,0,0,3.243,3.244H5.406v3.243a5.412,5.412,0,0,0,5.406,5.406h.325l3.027,8.334a5.419,5.419,0,0,0,5.082,3.559H30.49a5.419,5.419,0,0,0,5.082-3.558L38.6,52.979h.324a5.412,5.412,0,0,0,5.406-5.406V17.3a5.412,5.412,0,0,0-5.406-5.406H38.6L35.572,3.559A5.417,5.417,0,0,0,30.49,0H19.246a5.42,5.42,0,0,0-5.082,3.558l-3.027,8.335h-.325A5.412,5.412,0,0,0,5.406,17.3v3.243H3.244A3.244,3.244,0,0,0,0,23.786v4.325a3.243,3.243,0,0,0,3.244,3.243ZM4.325,42.167a1.081,1.081,0,0,1-1.081-1.081V38.923a1.081,1.081,0,0,1,1.081-1.081H5.406v4.325ZM33.537,60.576A3.254,3.254,0,0,1,30.49,62.71H19.246A3.254,3.254,0,0,1,16.2,60.574l-2.759-7.6H36.3ZM16.2,4.3a3.254,3.254,0,0,1,3.047-2.134H30.49A3.253,3.253,0,0,1,33.539,4.3l2.759,7.6H13.437Zm-8.63,13a3.244,3.244,0,0,1,3.243-3.244H38.923A3.244,3.244,0,0,1,42.167,17.3V47.573a3.244,3.244,0,0,1-3.244,3.244H10.812a3.244,3.244,0,0,1-3.243-3.244ZM2.162,23.786a1.081,1.081,0,0,1,1.081-1.081H5.406v6.487H3.244a1.081,1.081,0,0,1-1.081-1.081Zm0,0"/><path class="a" d="M91.688,159.412a15.153,15.153,0,0,0,15.137-15.137,14.942,14.942,0,0,0-1.235-5.938,6.476,6.476,0,0,0-9.623-8.571,15.137,15.137,0,1,0-4.28,29.645Zm12.975-24.868a4.325,4.325,0,1,1-4.325-4.325A4.325,4.325,0,0,1,104.663,134.544Zm-5.713,7.128c.06.149.108.3.156.445a3.848,3.848,0,0,1,.135.718,3.476,3.476,0,0,1,.015.359,3.086,3.086,0,0,1-.035.483c-.346,2.761-3.655,4.924-7.534,4.924a8.559,8.559,0,0,1-.865-.038,1.061,1.061,0,0,0-.826.267l-2.634,2.339v-2.914a1.08,1.08,0,0,0-.526-.928,5.155,5.155,0,0,1-2.675-3.584,3.769,3.769,0,0,1-.043-.548,3.41,3.41,0,0,1,.026-.471l.049-.309a4.544,4.544,0,0,1,1.089-2.088l.238-.249c.072-.072.145-.145.226-.216a7.682,7.682,0,0,1,2.229-1.373,10.162,10.162,0,0,1,6.4-.335,3.925,3.925,0,0,1,.449.127c.108.037.206.078.308.115a6.5,6.5,0,0,0,3.276,2.344A4.785,4.785,0,0,1,98.95,141.672ZM91.688,131.3a12.923,12.923,0,0,1,2.862.324,6.447,6.447,0,0,0-.7,2.919,6.565,6.565,0,0,0,.13,1.3,12.55,12.55,0,0,0-6.818.648,9.814,9.814,0,0,0-2.853,1.761c-.115.1-.216.2-.316.3l-.281.294A6.733,6.733,0,0,0,82.074,142l-.06.379a5.479,5.479,0,0,0-.056.815,5.944,5.944,0,0,0,.065.854,7.077,7.077,0,0,0,3.178,4.8v3.54a1.606,1.606,0,0,0,1.068,1.527,1.662,1.662,0,0,0,.554.1,1.607,1.607,0,0,0,1.172-.511l3.093-2.749c5.261.259,9.771-2.766,10.271-6.769a5.343,5.343,0,0,0,.059-.88c0-.15-.011-.289-.027-.491a5.9,5.9,0,0,0-.216-1.1A5.1,5.1,0,0,0,101,141a6.44,6.44,0,0,0,2.92-1.052,12.974,12.974,0,1,1-12.23-8.645Zm0,0" transform="translate(-66.82 -111.839)"/></g></svg>