<svg xmlns="http://www.w3.org/2000/svg" width="53.698" height="53.698" viewBox="0 0 53.698 53.698"><defs><style>.a{fill:#ffcbac;}.b{fill:#ff8a47;}.c{fill:#806bfe;}</style></defs><g transform="translate(0)"><path class="a" d="M100.293,184.99a17,17,0,0,1,13.844-16.7,16.99,16.99,0,1,0,0,33.4A17,17,0,0,1,100.293,184.99Z" transform="translate(-84.141 -150.38)"/><path class="b" d="M26.849,53.7A19.088,19.088,0,1,1,45.937,34.61,19.11,19.11,0,0,1,26.849,53.7Zm0-33.981A14.893,14.893,0,1,0,41.742,34.61,14.91,14.91,0,0,0,26.849,19.717ZM32.595,8.888,37.96,3.674a2.1,2.1,0,0,0,.636-1.5V2.1A2.1,2.1,0,0,0,34.739.954L29.662,5.889l-.019.019a4.193,4.193,0,0,1-5.925,0L18.645.808A2.1,2.1,0,0,0,14.893,2.1v.022A2.1,2.1,0,0,0,15.5,3.6l5.245,5.271a8.35,8.35,0,0,0,4.341,2.306,8.42,8.42,0,0,0,1.593.152,8.386,8.386,0,0,0,5.913-2.439Zm8.841,6.236L53.077,3.587A2.1,2.1,0,1,0,50.124.608L38.482,12.144a2.1,2.1,0,1,0,2.953,2.98Zm-26.206-.013a2.1,2.1,0,0,0-.013-2.966L3.574.608A2.1,2.1,0,0,0,.621,3.587L12.263,15.124a2.1,2.1,0,0,0,2.966-.013Z" transform="translate(0 0)"/><path class="c" d="M203.339,257.993a2.1,2.1,0,0,1-2.1-2.1V243.446l-2.067,1.24a2.1,2.1,0,1,1-2.158-3.6l2.544-1.526a3.88,3.88,0,0,1,5.877,3.327v13A2.1,2.1,0,0,1,203.339,257.993Z" transform="translate(-175.442 -213.944)"/></g></svg>