<svg xmlns="http://www.w3.org/2000/svg" width="51.202" height="51.202" viewBox="0 0 51.202 51.202"><defs><style>.a{fill:#ffd0b5;}.b{fill:#ff8a47;}.c{fill:#806bfe;}</style></defs><g transform="translate(0)"><path class="a" d="M59.2,50.267a6.5,6.5,0,1,1,0-11.532,6.5,6.5,0,0,0,0,11.532ZM25.1,57.205V30a9.984,9.984,0,0,1,9.972-10H29A10,10,0,0,0,19,30V57.2a10,10,0,0,0,10,10h6.072A9.984,9.984,0,0,1,25.1,57.205Z" transform="translate(-17.1 -18)"/><path class="b" d="M39.1,35a8.5,8.5,0,1,1,8.5-8.5A8.51,8.51,0,0,1,39.1,35Zm0-13a4.5,4.5,0,1,0,4.5,4.5A4.505,4.505,0,0,0,39.1,22ZM23.2,49.2a2,2,0,0,0-2-2H12a8.007,8.007,0,0,1-8-8V12a8.007,8.007,0,0,1,8-8H30.405a8.007,8.007,0,0,1,8,8,2,2,0,0,0,4,0,12.012,12.012,0,0,0-12-12H12A12.012,12.012,0,0,0,0,12V39.2a12.012,12.012,0,0,0,12,12h9.2A2,2,0,0,0,23.2,49.2Zm3.3-26.5a2,2,0,0,0-2-2H14.7a2,2,0,1,0,0,4h9.8A2,2,0,0,0,26.5,22.7Zm0,15.3a2,2,0,0,0-2-2H14.7a2,2,0,1,0,0,4h9.8A2,2,0,0,0,26.5,38Zm0-7.7a2,2,0,0,0-2-2H14.7a2,2,0,1,0,0,4h9.8A2,2,0,0,0,26.5,30.3Z"/><path class="c" d="M163.5,168.2a2,2,0,0,1-2-2,7.185,7.185,0,0,0-7.153-7.2h-1.695a7.185,7.185,0,0,0-7.153,7.2,2,2,0,0,1-4,0A11.189,11.189,0,0,1,152.653,155h1.695A11.189,11.189,0,0,1,165.5,166.2,2,2,0,0,1,163.5,168.2ZM144.8,132a2,2,0,0,0-2-2H129a2,2,0,1,0,0,4h13.8A2,2,0,0,0,144.8,132Z" transform="translate(-114.3 -117)"/></g></svg>