<svg xmlns="http://www.w3.org/2000/svg" width="45.927" height="57.408" viewBox="0 0 45.927 57.408"><defs><style>.a{fill:#ff8a47;}</style></defs><g transform="translate(0 0)"><path class="a" d="M74.963,150.082H92.186a6.705,6.705,0,0,0,6.7-6.7V126.162a6.705,6.705,0,0,0-6.7-6.7H74.963a6.706,6.706,0,0,0-6.7,6.7v17.223A6.706,6.706,0,0,0,74.963,150.082Zm-4.784-23.92a4.79,4.79,0,0,1,4.784-4.784H92.186a4.789,4.789,0,0,1,4.784,4.784v17.223a4.789,4.789,0,0,1-4.784,4.784H74.963a4.79,4.79,0,0,1-4.784-4.784Zm0,0" transform="translate(-60.611 -106.069)"/><path class="a" d="M3.827,33.488v3.827a10.536,10.536,0,0,0,8.636,10.346,30.592,30.592,0,0,0,1.458,7.779,2.871,2.871,0,0,0,2.727,1.968h12.63a2.871,2.871,0,0,0,2.729-1.967,30.6,30.6,0,0,0,1.458-7.78A10.535,10.535,0,0,0,42.1,37.315h.957a2.871,2.871,0,0,0,2.871-2.871V32.531a2.871,2.871,0,0,0-2.871-2.87H42.1V27.747h.957a2.871,2.871,0,0,0,2.871-2.87V22.963a2.871,2.871,0,0,0-2.871-2.871H42.1A10.535,10.535,0,0,0,33.463,9.747a30.592,30.592,0,0,0-1.458-7.779A2.871,2.871,0,0,0,29.278,0H16.648a2.87,2.87,0,0,0-2.727,1.967,30.6,30.6,0,0,0-1.458,7.78A10.536,10.536,0,0,0,3.827,20.093V23.92H2.871A2.87,2.87,0,0,0,0,26.79v3.827a2.87,2.87,0,0,0,2.871,2.871ZM30.189,54.837a.956.956,0,0,1-.911.657H16.648a.956.956,0,0,1-.913-.658,28.955,28.955,0,0,1-1.342-7h17.14a28.961,28.961,0,0,1-1.345,7ZM43.056,31.575a.957.957,0,0,1,.957.957v1.914a.957.957,0,0,1-.957.957H42.1V31.575Zm0-9.568a.957.957,0,0,1,.957.957v1.914a.957.957,0,0,1-.957.957H42.1V22.006ZM15.737,2.571a.957.957,0,0,1,.911-.657h12.63a.957.957,0,0,1,.913.658,28.976,28.976,0,0,1,1.342,7H14.393a28.981,28.981,0,0,1,1.344-7Zm-10,17.522a8.621,8.621,0,0,1,8.611-8.611H31.575a8.621,8.621,0,0,1,8.611,8.611V37.315a8.621,8.621,0,0,1-8.611,8.611H14.352a8.621,8.621,0,0,1-8.611-8.611ZM1.913,30.618V26.79a.957.957,0,0,1,.957-.957h.957v5.741H2.87A.957.957,0,0,1,1.913,30.618Zm0,0"/><path class="a" d="M166.917,222.9a4.784,4.784,0,1,0-4.784-4.784A4.784,4.784,0,0,0,166.917,222.9Zm0-7.655a2.871,2.871,0,1,1-2.871,2.871A2.871,2.871,0,0,1,166.917,215.246Zm0,0" transform="translate(-143.954 -189.412)"/><path class="a" d="M110.38,164.39c-.02.236-.03.465-.03.693,0,.264.012.528.035.788l-1.633,1.564a1.914,1.914,0,0,0-.338,2.328l1.158,2.028a1.913,1.913,0,0,0,2.173.893l2.191-.611a8.494,8.494,0,0,0,1.448.843l.553,2.2a1.913,1.913,0,0,0,1.855,1.447h2.337a1.913,1.913,0,0,0,1.855-1.448l.552-2.2a8.373,8.373,0,0,0,1.531-.9l2.191.59a1.905,1.905,0,0,0,2.175-.92l1.127-2.03a1.913,1.913,0,0,0-.361-2.327l-1.652-1.553c.02-.235.03-.465.03-.692,0-.264-.013-.528-.035-.788l1.634-1.565a1.914,1.914,0,0,0,.337-2.327l-1.158-2.028a1.908,1.908,0,0,0-2.173-.893l-2.191.61a8.491,8.491,0,0,0-1.448-.843l-.553-2.2a1.914,1.914,0,0,0-1.86-1.445h-2.337a1.913,1.913,0,0,0-1.855,1.448l-.552,2.2a8.369,8.369,0,0,0-1.531.9l-2.192-.59a1.914,1.914,0,0,0-2.172.921l-1.127,2.03a1.914,1.914,0,0,0,.36,2.327Zm.788-4.982,2.655.714a.955.955,0,0,0,.861-.191,6.543,6.543,0,0,1,1.854-1.095.957.957,0,0,0,.586-.66l.67-2.664h2.336l.67,2.664a.957.957,0,0,0,.585.66,6.606,6.606,0,0,1,1.8,1.045.957.957,0,0,0,.861.179l2.649-.738,1.154,2.028-1.978,1.9a.956.956,0,0,0-.287.835,6.712,6.712,0,0,1,.078,1,6.9,6.9,0,0,1-.067.931.956.956,0,0,0,.287.827l2.006,1.877-1.13,2.034-2.655-.715a.957.957,0,0,0-.861.191,6.549,6.549,0,0,1-1.854,1.095.957.957,0,0,0-.586.66l-.67,2.667h-2.337l-.67-2.663a.958.958,0,0,0-.584-.66,6.616,6.616,0,0,1-1.8-1.045.957.957,0,0,0-.6-.215.946.946,0,0,0-.258.035l-2.649.738-1.155-2.027,1.978-1.9a.956.956,0,0,0,.287-.835,6.714,6.714,0,0,1-.078-1,6.833,6.833,0,0,1,.067-.931.956.956,0,0,0-.287-.827l-2.006-1.877Zm0,0" transform="translate(-95.998 -136.379)"/><path class="a" d="M197.253,249.379a.957.957,0,0,0,0-1.914h-.006a.957.957,0,0,0,.006,1.914Zm0,0" transform="translate(-174.284 -219.718)"/></g></svg>