<svg xmlns="http://www.w3.org/2000/svg" width="53.554" height="53.554" viewBox="0 0 53.554 53.554"><defs><style>.a{fill:#ff8a47;}.b{fill:#806bfe;}</style></defs><path class="a" d="M27.091,12.552a6.276,6.276,0,1,1,6.276-6.276A6.283,6.283,0,0,1,27.091,12.552Zm0-8.368a2.092,2.092,0,1,0,2.092,2.092A2.094,2.094,0,0,0,27.091,4.184ZM36.4,23.43a8.648,8.648,0,0,0-8.7-8.577H26.479a8.648,8.648,0,0,0-8.7,8.577,2.092,2.092,0,1,0,4.184,0,4.46,4.46,0,0,1,4.514-4.393H27.7a4.46,4.46,0,0,1,4.514,4.393,2.092,2.092,0,1,0,4.184,0ZM9.309,40.584a6.276,6.276,0,1,1,6.276-6.276A6.283,6.283,0,0,1,9.309,40.584Zm0-8.368A2.092,2.092,0,1,0,11.4,34.308,2.094,2.094,0,0,0,9.309,32.216Zm9.309,19.246a8.648,8.648,0,0,0-8.7-8.577H8.7A8.648,8.648,0,0,0,0,51.462a2.092,2.092,0,0,0,4.184,0A4.46,4.46,0,0,1,8.7,47.069H9.921a4.46,4.46,0,0,1,4.514,4.393,2.092,2.092,0,0,0,4.184,0ZM44.245,40.584a6.276,6.276,0,1,1,6.276-6.276A6.283,6.283,0,0,1,44.245,40.584Zm0-8.368a2.092,2.092,0,1,0,2.092,2.092A2.094,2.094,0,0,0,44.245,32.216Zm9.309,19.246a8.648,8.648,0,0,0-8.7-8.577H43.633a8.648,8.648,0,0,0-8.7,8.577,2.092,2.092,0,0,0,4.184,0,4.46,4.46,0,0,1,4.514-4.393h1.223a4.46,4.46,0,0,1,4.514,4.393,2.092,2.092,0,0,0,4.184,0Z"/><path class="b" d="M97.2,101.535a2.093,2.093,0,0,1-2.032-1.6,17.425,17.425,0,0,0-6.8-10.079,2.092,2.092,0,1,1,2.437-3.4,21.61,21.61,0,0,1,8.432,12.5,2.094,2.094,0,0,1-2.036,2.581ZM61.3,99.932A17.435,17.435,0,0,1,68.011,89.92a2.092,2.092,0,1,0-2.46-3.384,21.623,21.623,0,0,0-8.316,12.418,2.092,2.092,0,1,0,4.068.978ZM84.661,122.46a2.092,2.092,0,0,0-1.244-3.995,17.284,17.284,0,0,1-5.183.851,17.486,17.486,0,0,1-5.463-.941,2.092,2.092,0,0,0-1.312,3.973,21.654,21.654,0,0,0,6.775,1.151A21.391,21.391,0,0,0,84.661,122.46Z" transform="translate(-51.196 -77.059)"/></svg>