<svg xmlns="http://www.w3.org/2000/svg" width="44.518" height="55.647" viewBox="0 0 44.518 55.647"><defs><style>.a{fill:#ff8a47;}</style></defs><g transform="translate(0 0)"><path class="a" d="M74.758,149.143H91.452a6.5,6.5,0,0,0,6.492-6.492V125.956a6.5,6.5,0,0,0-6.492-6.492H74.758a6.5,6.5,0,0,0-6.492,6.492v16.694A6.5,6.5,0,0,0,74.758,149.143ZM70.12,125.956a4.643,4.643,0,0,1,4.637-4.637H91.452a4.642,4.642,0,0,1,4.637,4.637v16.694a4.642,4.642,0,0,1-4.637,4.637H74.758a4.643,4.643,0,0,1-4.637-4.637Zm0,0" transform="translate(-60.846 -106.48)"/><path class="a" d="M3.71,32.461v3.71A10.212,10.212,0,0,0,12.081,46.2a29.663,29.663,0,0,0,1.413,7.541,2.782,2.782,0,0,0,2.643,1.907H28.38a2.783,2.783,0,0,0,2.645-1.907A29.664,29.664,0,0,0,32.438,46.2a10.212,10.212,0,0,0,8.369-10.028h.928a2.783,2.783,0,0,0,2.783-2.783V31.533a2.783,2.783,0,0,0-2.783-2.782h-.928V26.9h.928a2.783,2.783,0,0,0,2.783-2.782V22.259a2.783,2.783,0,0,0-2.783-2.783h-.928A10.212,10.212,0,0,0,32.437,9.448a29.663,29.663,0,0,0-1.413-7.541A2.783,2.783,0,0,0,28.38,0H16.138a2.782,2.782,0,0,0-2.643,1.907,29.664,29.664,0,0,0-1.413,7.541A10.212,10.212,0,0,0,3.71,19.476v3.71H2.782A2.782,2.782,0,0,0,0,25.969v3.71a2.782,2.782,0,0,0,2.783,2.783ZM29.264,53.154a.928.928,0,0,1-.884.638H16.138a.927.927,0,0,1-.886-.638,28.085,28.085,0,0,1-1.3-6.781H30.567a28.048,28.048,0,0,1-1.3,6.781ZM41.735,30.606a.928.928,0,0,1,.928.927v1.855a.928.928,0,0,1-.928.928h-.928v-3.71Zm0-9.275a.928.928,0,0,1,.928.928v1.855a.928.928,0,0,1-.928.927h-.928v-3.71ZM15.254,2.493a.927.927,0,0,1,.884-.638H28.38a.927.927,0,0,1,.886.638,28.106,28.106,0,0,1,1.3,6.781H13.951a28.007,28.007,0,0,1,1.3-6.781ZM5.565,19.476a8.357,8.357,0,0,1,8.347-8.347H30.606a8.357,8.357,0,0,1,8.347,8.347V36.171a8.357,8.357,0,0,1-8.347,8.347H13.912a8.357,8.357,0,0,1-8.347-8.347Zm-3.71,10.2v-3.71a.928.928,0,0,1,.928-.928H3.71v5.565H2.783A.928.928,0,0,1,1.855,29.678Zm0,0" transform="translate(0 0)"/><path class="a" d="M120.392,334.655h5.565a.927.927,0,1,0,0-1.855h-5.565a.927.927,0,1,0,0,1.855Zm0,0" transform="translate(-106.481 -296.63)"/><path class="a" d="M180.126,155.456h3.71a.927.927,0,0,0,0-1.855h-3.71a.927.927,0,1,0,0,1.855Zm0,0" transform="translate(-159.723 -136.907)"/><path class="a" d="M214.888,333.038a.931.931,0,1,0-1.317,1.317,1.067,1.067,0,0,0,.306.195.874.874,0,0,0,.7,0,.835.835,0,0,0,.5-.5.874.874,0,0,0,0-.7A1.078,1.078,0,0,0,214.888,333.038Zm0,0" transform="translate(-190.116 -296.599)"/><path class="a" d="M249.021,333.038a.931.931,0,1,0-1.317,1.317,1.067,1.067,0,0,0,.306.195.874.874,0,0,0,.7,0,.836.836,0,0,0,.5-.5.874.874,0,0,0,0-.7A1.078,1.078,0,0,0,249.021,333.038Zm0,0" transform="translate(-220.539 -296.599)"/><path class="a" d="M273.336,333.163a.94.94,0,0,0,0,1.317,1.071,1.071,0,0,0,.306.195.875.875,0,0,0,.705,0,.834.834,0,0,0,.5-.5.871.871,0,0,0,0-.7,1.078,1.078,0,0,0-.194-.306A.971.971,0,0,0,273.336,333.163Zm0,0" transform="translate(-243.389 -296.724)"/><path class="a" d="M145.992,197.934a.927.927,0,1,0,0,1.855h3.71a.927.927,0,0,0,0-1.855h-.928v-9.275a.927.927,0,0,0-1.7-.515l-1.855,2.782a.928.928,0,1,0,1.543,1.03l.156-.236v6.214Zm0,0" transform="translate(-129.298 -167.328)"/><path class="a" d="M204.8,191.444a.927.927,0,0,0,1.855,0,1.855,1.855,0,0,1,1.855-1.855,1.983,1.983,0,0,1,1.855,1.855c0,1.744-2.678,5.074-4.367,6.764a.927.927,0,0,0,.657,1.583h5.565a.927.927,0,1,0,0-1.855h-3.455c1.459-1.707,3.455-4.42,3.455-6.492a3.8,3.8,0,0,0-3.71-3.71A3.71,3.71,0,0,0,204.8,191.444Zm0,0" transform="translate(-182.542 -167.33)"/></g></svg>