<svg xmlns="http://www.w3.org/2000/svg" width="44.769" height="57.931" viewBox="0 0 44.769 57.931"><defs><style>.a{fill:#ff8a47;}</style></defs><g transform="translate(-0.001)"><path class="a" d="M126.6,159.37a.965.965,0,0,0,1.006,0c1.731-1.055,4.822-3.186,6.034-5.56,1.663-3.035,1.585-6.048-.193-7.674a4.447,4.447,0,0,0-3.7-1.045,4.657,4.657,0,0,0-2.639,1.422,4.659,4.659,0,0,0-2.638-1.422,4.44,4.44,0,0,0-3.7,1.045c-1.78,1.626-1.858,4.639-.209,7.651,1.226,2.4,4.317,4.529,6.048,5.584Zm-4.538-11.809a2.461,2.461,0,0,1,1.649-.6,2.679,2.679,0,0,1,.437.037,2.927,2.927,0,0,1,2.109,1.615,1,1,0,0,0,1.693,0A2.928,2.928,0,0,1,130.055,147a2.524,2.524,0,0,1,2.085.565c1.067.974.986,3.162-.209,5.347a13.931,13.931,0,0,1-4.828,4.5,13.92,13.92,0,0,1-4.845-4.525c-1.184-2.158-1.266-4.348-.2-5.322Zm0,0" transform="translate(-105.857 -128.615)"/><path class="a" d="M43.583,33.383l-1.378-1.005a21.118,21.118,0,0,0-.12-7.5l1.149-.739A2.9,2.9,0,0,0,44.42,20.8l-.272-.827A2.9,2.9,0,0,0,41.2,17.989l-1.712.116a21.43,21.43,0,0,0-2.2-3.032l-1.732-3.745a56.093,56.093,0,0,1-3.015-8.11l-.317-1.112A2.91,2.91,0,0,0,29.44,0h-16.4a2.909,2.909,0,0,0-2.786,2.1L9.945,3.212a56.19,56.19,0,0,1-3.013,8.11L5.2,15.072a21.178,21.178,0,0,0,0,27.786L6.928,46.6a56.147,56.147,0,0,1,3.018,8.115l.318,1.111a2.909,2.909,0,0,0,2.781,2.1h16.4a2.909,2.909,0,0,0,2.786-2.1l.317-1.111A56.27,56.27,0,0,1,35.557,46.6l1.732-3.744a21.3,21.3,0,0,0,2.541-3.627l1.359.173a3.038,3.038,0,0,0,.369.023,2.9,2.9,0,0,0,2.69-1.835l.32-.807a2.9,2.9,0,0,0-.985-3.4ZM41.331,19.915a.975.975,0,0,1,.982.663l.272.828a.966.966,0,0,1-.4,1.113l-.593.386a21.083,21.083,0,0,0-1.117-2.929ZM11.8,3.743l.317-1.112a.966.966,0,0,1,.928-.7h16.4a.966.966,0,0,1,.928.7l.317,1.111a58.321,58.321,0,0,0,2.936,7.978,21.17,21.17,0,0,0-24.759,0A58.43,58.43,0,0,0,11.8,3.743Zm9.444,5.912a19.31,19.31,0,1,1-19.31,19.31,19.31,19.31,0,0,1,19.31-19.31Zm9.443,44.533L30.368,55.3a.966.966,0,0,1-.928.7h-16.4a.966.966,0,0,1-.928-.7L11.8,54.188a58.321,58.321,0,0,0-2.936-7.978,21.17,21.17,0,0,0,24.759,0,58.431,58.431,0,0,0-2.935,7.978ZM42.773,36.079l-.32.808a.953.953,0,0,1-1.021.6l-.7-.09a20.956,20.956,0,0,0,1.029-2.952l.682.5a.966.966,0,0,1,.329,1.137Zm0,0"/><path class="a" d="M35.685,126.656a17.351,17.351,0,0,0,31.627,0q.015-.028.028-.057a17.379,17.379,0,1,0-31.682,0c.007.02.018.034.027.057Zm15.814,8.28a15.448,15.448,0,0,1-13.358-7.724h2.737a.964.964,0,0,0,.772-.386l1.993-2.658,3.476,6.4a.967.967,0,0,0,.773.5h.079a.965.965,0,0,0,.763-.374l3.634-4.679,2.171,3.619a.965.965,0,0,0,1.665-.019l3.133-5.483,2.009,2.69a.964.964,0,0,0,.772.386h2.738A15.449,15.449,0,0,1,51.5,134.936Zm0-30.9A15.428,15.428,0,0,1,65.81,125.281H62.6L60,121.805a.965.965,0,0,0-1.61.1l-3.044,5.327-2.049-3.414a.965.965,0,0,0-1.59-.1l-3.592,4.626-3.486-6.426a.965.965,0,0,0-.778-.5.984.984,0,0,0-.843.386L40.4,125.281H37.188A15.428,15.428,0,0,1,51.5,104.039Zm0,0" transform="translate(-30.257 -90.522)"/></g></svg>