<svg xmlns="http://www.w3.org/2000/svg" width="47.286" height="59.108" viewBox="0 0 47.286 59.108"><defs><style>.a{fill:#ff8a47;}</style></defs><g transform="translate(0 0)"><path class="a" d="M75.162,150.989H92.894a6.9,6.9,0,0,0,6.9-6.9V126.36a6.9,6.9,0,0,0-6.9-6.9H75.162a6.9,6.9,0,0,0-6.9,6.9v17.732A6.9,6.9,0,0,0,75.162,150.989ZM70.236,126.36a4.932,4.932,0,0,1,4.926-4.925H92.894a4.931,4.931,0,0,1,4.925,4.925v17.732a4.931,4.931,0,0,1-4.925,4.925H75.162a4.932,4.932,0,0,1-4.926-4.925Zm0,0" transform="translate(-60.385 -105.673)"/><path class="a" d="M3.94,34.479v3.94a10.848,10.848,0,0,0,8.892,10.652,31.508,31.508,0,0,0,1.5,8.01,2.955,2.955,0,0,0,2.808,2.025h13a2.956,2.956,0,0,0,2.809-2.025,31.508,31.508,0,0,0,1.5-8.01,10.847,10.847,0,0,0,8.89-10.652h.985a2.956,2.956,0,0,0,2.956-2.956v-1.97a2.956,2.956,0,0,0-2.956-2.955h-.985V28.568h.985a2.956,2.956,0,0,0,2.956-2.955v-1.97a2.956,2.956,0,0,0-2.956-2.956h-.985a10.847,10.847,0,0,0-8.891-10.652,31.508,31.508,0,0,0-1.5-8.01A2.956,2.956,0,0,0,30.145,0h-13a2.955,2.955,0,0,0-2.808,2.025,31.508,31.508,0,0,0-1.5,8.01A10.848,10.848,0,0,0,3.94,20.687v3.94H2.956A2.955,2.955,0,0,0,0,27.583v3.94a2.955,2.955,0,0,0,2.956,2.956Zm27.143,21.98a.986.986,0,0,1-.939.678h-13a.984.984,0,0,1-.941-.678,29.832,29.832,0,0,1-1.381-7.2H32.468a29.792,29.792,0,0,1-1.384,7.2Zm13.247-23.95a.985.985,0,0,1,.985.985v1.97a.985.985,0,0,1-.985.985h-.985v-3.94Zm0-9.852a.985.985,0,0,1,.985.985v1.97a.985.985,0,0,1-.985.985h-.985v-3.94ZM16.2,2.648a.985.985,0,0,1,.939-.678h13a.985.985,0,0,1,.941.678,29.853,29.853,0,0,1,1.381,7.2H14.818a29.749,29.749,0,0,1,1.384-7.2ZM5.911,20.688a8.877,8.877,0,0,1,8.866-8.866H32.509a8.877,8.877,0,0,1,8.866,8.866V38.42a8.877,8.877,0,0,1-8.866,8.866H14.777A8.877,8.877,0,0,1,5.911,38.42ZM1.97,31.524v-3.94a.985.985,0,0,1,.985-.985H3.94v5.911H2.956A.985.985,0,0,1,1.97,31.524Zm0,0" transform="translate(0 0)"/><path class="a" d="M125.711,308.184v.985H111.919a.985.985,0,0,0,0,1.97h13.792v.985a.985.985,0,0,0,1.97,0v-.985h3.94a.985.985,0,1,0,0-1.97h-3.94v-.985a.985.985,0,1,0-1.97,0Zm0,0" transform="translate(-98.127 -271.735)"/><path class="a" d="M273.351,236.017a.986.986,0,0,0,1.393,0l1.97-1.971a.985.985,0,0,0,0-1.394l-1.97-1.97a.985.985,0,0,0-1.393,1.394l1.274,1.274-1.274,1.273a.985.985,0,0,0,0,1.394Zm0,0" transform="translate(-241.539 -203.796)"/><path class="a" d="M179.2,215.57v5.361a2.239,2.239,0,0,0,1.208,2.023,2.006,2.006,0,0,0,2.13-.184l3.637-2.68a2.319,2.319,0,0,0,0-3.679l-3.637-2.68a2.006,2.006,0,0,0-2.13-.184,2.241,2.241,0,0,0-1.208,2.023Zm1.97,0a.288.288,0,0,1,.125-.266.07.07,0,0,1,.028-.009.086.086,0,0,1,.046.021L185,218a.324.324,0,0,1,.105.254.318.318,0,0,1-.105.253l-3.71,2.693a.286.286,0,0,1-.125-.265Zm0,0" transform="translate(-158.509 -188.697)"/><path class="a" d="M107.261,236.31a2.956,2.956,0,1,0,0-5.911.985.985,0,1,0,0,1.97.985.985,0,1,1-.854,1.478.985.985,0,1,0-1.705.985A2.968,2.968,0,0,0,107.261,236.31Zm0,0" transform="translate(-92.484 -203.801)"/><path class="a" d="M111.919,155.572H119.8a.985.985,0,0,0,0-1.97h-7.881a.985.985,0,0,0,0,1.97Zm0,0" transform="translate(-98.127 -135.869)"/><path class="a" d="M111.919,189.7h3.941a.985.985,0,0,0,0-1.97h-3.941a.985.985,0,0,0,0,1.97Zm0,0" transform="translate(-98.127 -166.062)"/></g></svg>