<svg xmlns="http://www.w3.org/2000/svg" width="19.506" height="26.64" viewBox="0 0 19.506 26.64"><defs><style>.a{fill:#fff;}</style></defs><g transform="translate(-478.557 -755.36)"><path class="a" d="M88.05,23.009,86.633,7.418A.834.834,0,0,0,85.8,6.66H83.3V5a5,5,0,1,0-9.99,0V6.66h-2.5a.831.831,0,0,0-.829.758L68.571,23.009a3.329,3.329,0,0,0,3.317,3.631H84.733a3.329,3.329,0,0,0,3.317-3.631ZM74.979,5a3.33,3.33,0,1,1,6.66,0V6.66h-6.66ZM85.962,24.434a1.653,1.653,0,0,1-1.23.541H71.887a1.665,1.665,0,0,1-1.657-1.817L71.578,8.325h1.737v2.5a.833.833,0,1,0,1.665,0v-2.5h6.66v2.5a.833.833,0,1,0,1.665,0v-2.5h1.737L86.39,23.16A1.644,1.644,0,0,1,85.962,24.434Z" transform="translate(410 755.36)"/></g></svg>